<svg viewBox="0 0 64 64" fill="none" xmlns="http://www.w3.org/2000/svg">
  <!-- Crown/Leaves -->
  <path d="M32 4 L28 12 L32 10 L36 12 Z" fill="#22c55e" />
  <path d="M28 6 L24 14 L28 12 Z" fill="#16a34a" />
  <path d="M36 6 L40 14 L36 12 Z" fill="#16a34a" />
  <path d="M24 8 L20 16 L24 14 Z" fill="#15803d" />
  <path d="M40 8 L44 16 L40 14 Z" fill="#15803d" />

  <!-- Pineapple Body -->
  <ellipse cx="32" cy="38" rx="14" ry="20" fill="#fbbf24" />
  <ellipse cx="32" cy="38" rx="12" ry="18" fill="#f59e0b" />

  <!-- Diamond Pattern -->
  <path
    d="M26 24 L32 28 L38 24 L32 20 Z"
    fill="#d97706"
    opacity="0.3"
  />
  <path
    d="M26 32 L32 36 L38 32 L32 28 Z"
    fill="#d97706"
    opacity="0.3"
  />
  <path
    d="M26 40 L32 44 L38 40 L32 36 Z"
    fill="#d97706"
    opacity="0.3"
  />
  <path
    d="M26 48 L32 52 L38 48 L32 44 Z"
    fill="#d97706"
    opacity="0.3"
  />

  <path
    d="M20 28 L26 32 L32 28 L26 24 Z"
    fill="#d97706"
    opacity="0.3"
  />
  <path
    d="M32 28 L38 32 L44 28 L38 24 Z"
    fill="#d97706"
    opacity="0.3"
  />
  <path
    d="M20 36 L26 40 L32 36 L26 32 Z"
    fill="#d97706"
    opacity="0.3"
  />
  <path
    d="M32 36 L38 40 L44 36 L38 32 Z"
    fill="#d97706"
    opacity="0.3"
  />
</svg>
